<mxfile host="app.diagrams.net" modified="2022-05-04T23:19:27.352Z" agent="5.0 (Windows NT 10.0; Win64; x64) AppleWebKit/537.36 (KHTML, like Gecko) Chrome/100.0.4896.127 Safari/537.36" etag="GNy-qW-t-7L5bybO7v2z" version="17.5.0" type="github">
  <diagram id="I5VTyT_izaSFF04TU8fd" name="Page-1">
    <mxGraphModel dx="1323" dy="715" grid="1" gridSize="10" guides="1" tooltips="1" connect="1" arrows="1" fold="1" page="1" pageScale="1" pageWidth="827" pageHeight="1169" math="0" shadow="0">
      <root>
        <mxCell id="0" />
        <mxCell id="1" parent="0" />
        <mxCell id="L9lNhZp7-7Bz14j9XuSA-1" value="Inicio" style="text;html=1;align=center;verticalAlign=middle;resizable=0;points=[];autosize=1;strokeColor=none;fillColor=none;" vertex="1" parent="1">
          <mxGeometry x="374" y="150" width="40" height="20" as="geometry" />
        </mxCell>
        <mxCell id="L9lNhZp7-7Bz14j9XuSA-4" value="" style="edgeStyle=orthogonalEdgeStyle;rounded=0;orthogonalLoop=1;jettySize=auto;html=1;fontSize=18;" edge="1" parent="1" source="L9lNhZp7-7Bz14j9XuSA-2" target="L9lNhZp7-7Bz14j9XuSA-3">
          <mxGeometry relative="1" as="geometry" />
        </mxCell>
        <mxCell id="L9lNhZp7-7Bz14j9XuSA-2" value="&lt;font style=&quot;font-size: 18px&quot;&gt;Início&lt;/font&gt;" style="ellipse;whiteSpace=wrap;html=1;" vertex="1" parent="1">
          <mxGeometry x="330" y="100" width="140" height="100" as="geometry" />
        </mxCell>
        <mxCell id="L9lNhZp7-7Bz14j9XuSA-7" value="" style="edgeStyle=orthogonalEdgeStyle;rounded=0;orthogonalLoop=1;jettySize=auto;html=1;fontSize=18;" edge="1" parent="1" source="L9lNhZp7-7Bz14j9XuSA-3" target="L9lNhZp7-7Bz14j9XuSA-6">
          <mxGeometry relative="1" as="geometry" />
        </mxCell>
        <mxCell id="L9lNhZp7-7Bz14j9XuSA-3" value="&lt;font style=&quot;font-size: 14px&quot;&gt;ligar o interruptor&lt;/font&gt;" style="whiteSpace=wrap;html=1;" vertex="1" parent="1">
          <mxGeometry x="330" y="260" width="140" height="60" as="geometry" />
        </mxCell>
        <mxCell id="L9lNhZp7-7Bz14j9XuSA-5" value="Trocar uma lâmpada" style="text;html=1;align=center;verticalAlign=middle;resizable=0;points=[];autosize=1;strokeColor=none;fillColor=none;fontSize=18;" vertex="1" parent="1">
          <mxGeometry x="300" y="70" width="180" height="30" as="geometry" />
        </mxCell>
        <mxCell id="L9lNhZp7-7Bz14j9XuSA-9" value="" style="edgeStyle=orthogonalEdgeStyle;rounded=0;orthogonalLoop=1;jettySize=auto;html=1;fontSize=18;startArrow=none;" edge="1" parent="1" source="L9lNhZp7-7Bz14j9XuSA-10" target="L9lNhZp7-7Bz14j9XuSA-8">
          <mxGeometry relative="1" as="geometry" />
        </mxCell>
        <mxCell id="L9lNhZp7-7Bz14j9XuSA-13" value="" style="edgeStyle=orthogonalEdgeStyle;rounded=0;orthogonalLoop=1;jettySize=auto;html=1;fontSize=18;" edge="1" parent="1" source="L9lNhZp7-7Bz14j9XuSA-6" target="L9lNhZp7-7Bz14j9XuSA-12">
          <mxGeometry relative="1" as="geometry" />
        </mxCell>
        <mxCell id="L9lNhZp7-7Bz14j9XuSA-6" value="&lt;font style=&quot;font-size: 14px&quot;&gt;lâmpada ligou ?&lt;/font&gt;" style="rhombus;whiteSpace=wrap;html=1;" vertex="1" parent="1">
          <mxGeometry x="550" y="250" width="110" height="80" as="geometry" />
        </mxCell>
        <mxCell id="L9lNhZp7-7Bz14j9XuSA-8" value="&lt;font style=&quot;font-size: 14px&quot;&gt;Fim&lt;/font&gt;" style="ellipse;whiteSpace=wrap;html=1;" vertex="1" parent="1">
          <mxGeometry x="760" y="260" width="120" height="60" as="geometry" />
        </mxCell>
        <mxCell id="L9lNhZp7-7Bz14j9XuSA-10" value="Sim" style="text;html=1;align=center;verticalAlign=middle;resizable=0;points=[];autosize=1;strokeColor=none;fillColor=none;fontSize=18;" vertex="1" parent="1">
          <mxGeometry x="680" y="275" width="50" height="30" as="geometry" />
        </mxCell>
        <mxCell id="L9lNhZp7-7Bz14j9XuSA-11" value="" style="edgeStyle=orthogonalEdgeStyle;rounded=0;orthogonalLoop=1;jettySize=auto;html=1;fontSize=18;endArrow=none;" edge="1" parent="1" source="L9lNhZp7-7Bz14j9XuSA-6" target="L9lNhZp7-7Bz14j9XuSA-10">
          <mxGeometry relative="1" as="geometry">
            <mxPoint x="660" y="290" as="sourcePoint" />
            <mxPoint x="760" y="290" as="targetPoint" />
          </mxGeometry>
        </mxCell>
        <mxCell id="L9lNhZp7-7Bz14j9XuSA-16" value="" style="edgeStyle=orthogonalEdgeStyle;rounded=0;orthogonalLoop=1;jettySize=auto;html=1;fontSize=18;" edge="1" parent="1" source="L9lNhZp7-7Bz14j9XuSA-12" target="L9lNhZp7-7Bz14j9XuSA-15">
          <mxGeometry relative="1" as="geometry" />
        </mxCell>
        <mxCell id="L9lNhZp7-7Bz14j9XuSA-12" value="&lt;font style=&quot;font-size: 14px&quot;&gt;Pegue uma escada&lt;/font&gt;" style="whiteSpace=wrap;html=1;" vertex="1" parent="1">
          <mxGeometry x="545" y="430" width="120" height="60" as="geometry" />
        </mxCell>
        <mxCell id="L9lNhZp7-7Bz14j9XuSA-14" value="Não" style="text;html=1;align=center;verticalAlign=middle;resizable=0;points=[];autosize=1;strokeColor=none;fillColor=none;fontSize=18;" vertex="1" parent="1">
          <mxGeometry x="585" y="365" width="50" height="30" as="geometry" />
        </mxCell>
        <mxCell id="L9lNhZp7-7Bz14j9XuSA-18" value="" style="edgeStyle=orthogonalEdgeStyle;rounded=0;orthogonalLoop=1;jettySize=auto;html=1;fontSize=18;" edge="1" parent="1" source="L9lNhZp7-7Bz14j9XuSA-15" target="L9lNhZp7-7Bz14j9XuSA-17">
          <mxGeometry relative="1" as="geometry" />
        </mxCell>
        <mxCell id="L9lNhZp7-7Bz14j9XuSA-15" value="&lt;font style=&quot;font-size: 14px&quot;&gt;coloque embaixo da lâmpada&amp;nbsp;&lt;/font&gt;" style="whiteSpace=wrap;html=1;" vertex="1" parent="1">
          <mxGeometry x="545" y="560" width="120" height="60" as="geometry" />
        </mxCell>
        <mxCell id="L9lNhZp7-7Bz14j9XuSA-20" value="" style="edgeStyle=orthogonalEdgeStyle;rounded=0;orthogonalLoop=1;jettySize=auto;html=1;fontSize=18;" edge="1" parent="1" source="L9lNhZp7-7Bz14j9XuSA-17" target="L9lNhZp7-7Bz14j9XuSA-19">
          <mxGeometry relative="1" as="geometry" />
        </mxCell>
        <mxCell id="L9lNhZp7-7Bz14j9XuSA-17" value="&lt;font style=&quot;font-size: 14px&quot;&gt;Pegue uma lâmpada nova&lt;/font&gt;" style="whiteSpace=wrap;html=1;" vertex="1" parent="1">
          <mxGeometry x="545" y="700" width="120" height="60" as="geometry" />
        </mxCell>
        <mxCell id="L9lNhZp7-7Bz14j9XuSA-22" value="" style="edgeStyle=orthogonalEdgeStyle;rounded=0;orthogonalLoop=1;jettySize=auto;html=1;fontSize=18;" edge="1" parent="1" source="L9lNhZp7-7Bz14j9XuSA-19" target="L9lNhZp7-7Bz14j9XuSA-21">
          <mxGeometry relative="1" as="geometry" />
        </mxCell>
        <mxCell id="L9lNhZp7-7Bz14j9XuSA-19" value="&lt;font style=&quot;font-size: 14px&quot;&gt;Suba na escada&amp;nbsp;&lt;/font&gt;" style="whiteSpace=wrap;html=1;" vertex="1" parent="1">
          <mxGeometry x="545" y="840" width="120" height="60" as="geometry" />
        </mxCell>
        <mxCell id="L9lNhZp7-7Bz14j9XuSA-24" value="" style="edgeStyle=orthogonalEdgeStyle;rounded=0;orthogonalLoop=1;jettySize=auto;html=1;fontSize=18;" edge="1" parent="1" source="L9lNhZp7-7Bz14j9XuSA-21" target="L9lNhZp7-7Bz14j9XuSA-23">
          <mxGeometry relative="1" as="geometry" />
        </mxCell>
        <mxCell id="L9lNhZp7-7Bz14j9XuSA-21" value="&lt;font style=&quot;font-size: 14px&quot;&gt;Retire a lâmpada velha&amp;nbsp;&amp;nbsp;&lt;/font&gt;" style="whiteSpace=wrap;html=1;" vertex="1" parent="1">
          <mxGeometry x="745" y="840" width="120" height="60" as="geometry" />
        </mxCell>
        <mxCell id="L9lNhZp7-7Bz14j9XuSA-26" value="" style="edgeStyle=orthogonalEdgeStyle;rounded=0;orthogonalLoop=1;jettySize=auto;html=1;fontSize=18;" edge="1" parent="1" source="L9lNhZp7-7Bz14j9XuSA-23" target="L9lNhZp7-7Bz14j9XuSA-25">
          <mxGeometry relative="1" as="geometry" />
        </mxCell>
        <mxCell id="L9lNhZp7-7Bz14j9XuSA-23" value="&lt;font style=&quot;font-size: 14px&quot;&gt;coloque a lâmpada nova&lt;/font&gt;" style="whiteSpace=wrap;html=1;" vertex="1" parent="1">
          <mxGeometry x="945" y="840" width="120" height="60" as="geometry" />
        </mxCell>
        <mxCell id="L9lNhZp7-7Bz14j9XuSA-28" value="" style="edgeStyle=orthogonalEdgeStyle;rounded=0;orthogonalLoop=1;jettySize=auto;html=1;fontSize=18;" edge="1" parent="1" source="L9lNhZp7-7Bz14j9XuSA-25" target="L9lNhZp7-7Bz14j9XuSA-27">
          <mxGeometry relative="1" as="geometry" />
        </mxCell>
        <mxCell id="L9lNhZp7-7Bz14j9XuSA-25" value="&lt;font style=&quot;font-size: 14px&quot;&gt;desça da escada&amp;nbsp;&lt;/font&gt;" style="whiteSpace=wrap;html=1;" vertex="1" parent="1">
          <mxGeometry x="1145" y="840" width="120" height="60" as="geometry" />
        </mxCell>
        <mxCell id="L9lNhZp7-7Bz14j9XuSA-30" value="" style="edgeStyle=orthogonalEdgeStyle;rounded=0;orthogonalLoop=1;jettySize=auto;html=1;fontSize=18;" edge="1" parent="1" source="L9lNhZp7-7Bz14j9XuSA-27" target="L9lNhZp7-7Bz14j9XuSA-29">
          <mxGeometry relative="1" as="geometry" />
        </mxCell>
        <mxCell id="L9lNhZp7-7Bz14j9XuSA-27" value="&lt;font style=&quot;font-size: 14px&quot;&gt;ligue o interruptor&amp;nbsp;&lt;/font&gt;" style="whiteSpace=wrap;html=1;" vertex="1" parent="1">
          <mxGeometry x="1145" y="700" width="120" height="60" as="geometry" />
        </mxCell>
        <mxCell id="L9lNhZp7-7Bz14j9XuSA-32" value="" style="edgeStyle=orthogonalEdgeStyle;rounded=0;orthogonalLoop=1;jettySize=auto;html=1;fontSize=18;startArrow=none;" edge="1" parent="1" source="L9lNhZp7-7Bz14j9XuSA-33" target="L9lNhZp7-7Bz14j9XuSA-31">
          <mxGeometry relative="1" as="geometry" />
        </mxCell>
        <mxCell id="L9lNhZp7-7Bz14j9XuSA-36" value="" style="edgeStyle=orthogonalEdgeStyle;rounded=0;orthogonalLoop=1;jettySize=auto;html=1;fontSize=14;startArrow=none;" edge="1" parent="1" source="L9lNhZp7-7Bz14j9XuSA-38" target="L9lNhZp7-7Bz14j9XuSA-35">
          <mxGeometry relative="1" as="geometry" />
        </mxCell>
        <mxCell id="L9lNhZp7-7Bz14j9XuSA-29" value="&lt;font style=&quot;font-size: 14px&quot;&gt;lâmpada ligou ?&lt;/font&gt;" style="rhombus;whiteSpace=wrap;html=1;" vertex="1" parent="1">
          <mxGeometry x="1120" y="492.5" width="170" height="140" as="geometry" />
        </mxCell>
        <mxCell id="L9lNhZp7-7Bz14j9XuSA-31" value="&lt;font style=&quot;font-size: 14px&quot;&gt;Fim&lt;/font&gt;" style="ellipse;whiteSpace=wrap;html=1;" vertex="1" parent="1">
          <mxGeometry x="1145" y="310" width="120" height="60" as="geometry" />
        </mxCell>
        <mxCell id="L9lNhZp7-7Bz14j9XuSA-33" value="&lt;font style=&quot;font-size: 18px&quot;&gt;Sim&lt;/font&gt;" style="text;html=1;align=center;verticalAlign=middle;resizable=0;points=[];autosize=1;strokeColor=none;fillColor=none;fontSize=14;" vertex="1" parent="1">
          <mxGeometry x="1180" y="430" width="50" height="20" as="geometry" />
        </mxCell>
        <mxCell id="L9lNhZp7-7Bz14j9XuSA-34" value="" style="edgeStyle=orthogonalEdgeStyle;rounded=0;orthogonalLoop=1;jettySize=auto;html=1;fontSize=18;endArrow=none;" edge="1" parent="1" source="L9lNhZp7-7Bz14j9XuSA-29" target="L9lNhZp7-7Bz14j9XuSA-33">
          <mxGeometry relative="1" as="geometry">
            <mxPoint x="1205" y="490" as="sourcePoint" />
            <mxPoint x="1205" y="370" as="targetPoint" />
          </mxGeometry>
        </mxCell>
        <mxCell id="L9lNhZp7-7Bz14j9XuSA-42" value="" style="edgeStyle=orthogonalEdgeStyle;rounded=0;orthogonalLoop=1;jettySize=auto;html=1;fontSize=18;" edge="1" parent="1" source="L9lNhZp7-7Bz14j9XuSA-35" target="L9lNhZp7-7Bz14j9XuSA-41">
          <mxGeometry relative="1" as="geometry" />
        </mxCell>
        <mxCell id="L9lNhZp7-7Bz14j9XuSA-35" value="&lt;span style=&quot;font-size: 14px&quot;&gt;pegue outra lâmpada nova&lt;/span&gt;" style="whiteSpace=wrap;html=1;" vertex="1" parent="1">
          <mxGeometry x="1400" y="525" width="135" height="75" as="geometry" />
        </mxCell>
        <mxCell id="L9lNhZp7-7Bz14j9XuSA-38" value="Não" style="text;html=1;align=center;verticalAlign=middle;resizable=0;points=[];autosize=1;strokeColor=none;fillColor=none;fontSize=18;" vertex="1" parent="1">
          <mxGeometry x="1310" y="547.5" width="50" height="30" as="geometry" />
        </mxCell>
        <mxCell id="L9lNhZp7-7Bz14j9XuSA-39" value="" style="edgeStyle=orthogonalEdgeStyle;rounded=0;orthogonalLoop=1;jettySize=auto;html=1;fontSize=14;endArrow=none;" edge="1" parent="1" source="L9lNhZp7-7Bz14j9XuSA-29" target="L9lNhZp7-7Bz14j9XuSA-38">
          <mxGeometry relative="1" as="geometry">
            <mxPoint x="1290" y="560" as="sourcePoint" />
            <mxPoint x="1395" y="560" as="targetPoint" />
          </mxGeometry>
        </mxCell>
        <mxCell id="L9lNhZp7-7Bz14j9XuSA-44" value="" style="edgeStyle=orthogonalEdgeStyle;rounded=0;orthogonalLoop=1;jettySize=auto;html=1;fontSize=18;" edge="1" parent="1" source="L9lNhZp7-7Bz14j9XuSA-41" target="L9lNhZp7-7Bz14j9XuSA-43">
          <mxGeometry relative="1" as="geometry" />
        </mxCell>
        <mxCell id="L9lNhZp7-7Bz14j9XuSA-41" value="&lt;font style=&quot;font-size: 14px&quot;&gt;Suba na escada&amp;nbsp;&lt;/font&gt;" style="whiteSpace=wrap;html=1;" vertex="1" parent="1">
          <mxGeometry x="1400" y="670" width="135" height="70" as="geometry" />
        </mxCell>
        <mxCell id="L9lNhZp7-7Bz14j9XuSA-47" style="edgeStyle=orthogonalEdgeStyle;rounded=0;orthogonalLoop=1;jettySize=auto;html=1;exitX=0;exitY=0.25;exitDx=0;exitDy=0;entryX=1;entryY=0.25;entryDx=0;entryDy=0;fontSize=14;" edge="1" parent="1" source="L9lNhZp7-7Bz14j9XuSA-43" target="L9lNhZp7-7Bz14j9XuSA-25">
          <mxGeometry relative="1" as="geometry" />
        </mxCell>
        <mxCell id="L9lNhZp7-7Bz14j9XuSA-43" value="&lt;font style=&quot;font-size: 14px&quot;&gt;Retire a lâmpada anterior&amp;nbsp;&lt;/font&gt;" style="whiteSpace=wrap;html=1;" vertex="1" parent="1">
          <mxGeometry x="1402.5" y="810" width="130" height="90" as="geometry" />
        </mxCell>
      </root>
    </mxGraphModel>
  </diagram>
</mxfile>
